<?xml version="1.0" encoding="UTF-8"?><svg id="a" xmlns="http://www.w3.org/2000/svg" xmlns:xlink="http://www.w3.org/1999/xlink" viewBox="0 0 1270.73 458.37"><defs><style>.c{fill:none;}.c,.d{stroke:#161818;stroke-miterlimit:10;stroke-width:5px;}.e{fill:#161818;}.d{fill:url(#b);}</style><linearGradient id="b" x1="123.91" y1="58.83" x2="123.91" y2="428.98" gradientUnits="userSpaceOnUse"><stop offset=".6" stop-color="#fce493"/><stop offset=".61" stop-color="#e1d89c"/><stop offset=".63" stop-color="#bcc8a8"/><stop offset=".66" stop-color="#9cbab3"/><stop offset=".68" stop-color="#81aebc"/><stop offset=".71" stop-color="#6ba5c4"/><stop offset=".74" stop-color="#5a9dca"/><stop offset=".78" stop-color="#4e98ce"/><stop offset=".84" stop-color="#4795d0"/><stop offset="1" stop-color="#4695d1"/></linearGradient></defs><g><path class="e" d="M512.95,428.98h-33.48v-118.26l-46.38,118.26-46.38-118.26v118.26h-33.48V224.1h34.1l45.77,116.73,45.77-116.73h34.1v204.88Z"/><path class="e" d="M666.53,224.1l68.5,204.88h-33.79l-19.66-57.75h-65.12l-19.66,57.75h-33.79l68.5-204.88h35.02Zm3.69,114.57l-21.5-63.28-21.19,63.28h42.7Z"/><path class="e" d="M875.1,274.78c-3.89-7.99-8.14-13.72-12.75-17.2-4.61-3.48-10.29-5.22-17.05-5.22-8.6,0-15.87,2.97-21.81,8.91s-8.91,13.21-8.91,21.81,3.69,13.93,11.06,17.2c1.64,.82,3.02,1.49,4.15,2,1.12,.51,2.5,.92,4.15,1.23,1.64,.31,3.69,.67,6.14,1.08,2.46,.41,5.84,.92,10.14,1.54,18.84,2.46,33.28,8.4,43.31,17.82,5.94,5.33,10.6,12.08,13.98,20.27,3.38,8.19,5.07,16.59,5.07,25.19s-1.64,17.41-4.91,25.19c-3.28,7.79-7.73,14.54-13.36,20.27-5.63,5.74-12.34,10.19-20.12,13.36-7.79,3.17-16.18,4.76-25.19,4.76-16.59,0-31.28-4.61-44.08-13.82-12.8-9.22-22.68-22.22-29.64-39.01l28.87-11.37c11.67,21.09,26.62,31.64,44.85,31.64,9.21,0,16.79-2.76,22.73-8.29,5.94-5.53,8.91-12.7,8.91-21.5,0-5.32-1.28-10.49-3.84-15.51-2.56-5.02-5.89-8.96-9.98-11.83-2.46-1.64-5.27-2.92-8.45-3.84-3.18-.92-7.43-1.79-12.75-2.61-6.14-.82-11.26-1.58-15.36-2.3-4.1-.71-7.58-1.48-10.44-2.3-2.87-.82-5.38-1.69-7.53-2.61-2.15-.92-4.25-2-6.3-3.23-3.48-2.04-6.6-4.66-9.37-7.83-2.76-3.17-5.22-6.71-7.37-10.6-2.15-3.89-3.79-7.99-4.91-12.29-1.13-4.3-1.69-8.6-1.69-12.9,0-8.6,1.69-16.69,5.07-24.27,3.38-7.57,7.88-14.23,13.51-19.97,5.63-5.73,12.29-10.29,19.97-13.67,7.68-3.38,15.82-5.07,24.42-5.07,10.24,0,19.81,2.3,28.72,6.91,8.91,4.61,16.13,11.21,21.66,19.81,1.84,2.87,3.38,5.63,4.61,8.29,1.23,2.66,2.66,6.35,4.3,11.06l-29.8,8.91Z"/><path class="e" d="M1056.33,274.78c-3.89-7.99-8.14-13.72-12.75-17.2-4.61-3.48-10.29-5.22-17.05-5.22-8.6,0-15.87,2.97-21.81,8.91s-8.91,13.21-8.91,21.81,3.69,13.93,11.06,17.2c1.64,.82,3.02,1.49,4.15,2,1.12,.51,2.5,.92,4.15,1.23,1.64,.31,3.69,.67,6.14,1.08,2.46,.41,5.84,.92,10.14,1.54,18.84,2.46,33.28,8.4,43.31,17.82,5.94,5.33,10.6,12.08,13.98,20.27,3.38,8.19,5.07,16.59,5.07,25.19s-1.64,17.41-4.91,25.19c-3.28,7.79-7.73,14.54-13.36,20.27-5.63,5.74-12.34,10.19-20.12,13.36-7.79,3.17-16.18,4.76-25.19,4.76-16.59,0-31.28-4.61-44.08-13.82-12.8-9.22-22.68-22.22-29.64-39.01l28.87-11.37c11.67,21.09,26.62,31.64,44.85,31.64,9.21,0,16.79-2.76,22.73-8.29,5.94-5.53,8.91-12.7,8.91-21.5,0-5.32-1.28-10.49-3.84-15.51-2.56-5.02-5.89-8.96-9.98-11.83-2.46-1.64-5.27-2.92-8.45-3.84-3.18-.92-7.43-1.79-12.75-2.61-6.14-.82-11.26-1.58-15.36-2.3-4.1-.71-7.58-1.48-10.44-2.3-2.87-.82-5.38-1.69-7.53-2.61-2.15-.92-4.25-2-6.3-3.23-3.48-2.04-6.6-4.66-9.37-7.83-2.76-3.17-5.22-6.71-7.37-10.6-2.15-3.89-3.79-7.99-4.91-12.29-1.13-4.3-1.69-8.6-1.69-12.9,0-8.6,1.69-16.69,5.07-24.27,3.38-7.57,7.88-14.23,13.51-19.97,5.63-5.73,12.29-10.29,19.97-13.67,7.68-3.38,15.82-5.07,24.42-5.07,10.24,0,19.81,2.3,28.72,6.91,8.91,4.61,16.13,11.21,21.66,19.81,1.84,2.87,3.38,5.63,4.61,8.29,1.23,2.66,2.66,6.35,4.3,11.06l-29.8,8.91Z"/><path class="e" d="M1264.9,224.1v32.87h-86.32v49.76h59.28v32.87h-59.28v56.52h92.15v32.87h-125.02V224.1h119.18Z"/></g><rect class="e" x="269.53" y="145.22" width="32.33" height="313.15"/><circle class="e" cx="285.7" cy="92.71" r="29.1"/><circle class="e" cx="318.94" cy="31.56" r="9.7"/><path class="c" d="M289.95,75.18s9.89-50.82,28.32-50.82"/><path class="e" d="M251.04,145.22S166.69,172.7,18.03,0c0,0-99.32,101.85,168.28,448.53l64.74,9.84V145.22Z"/><circle class="e" cx="246.95" cy="32.81" r="9.7"/><path class="c" d="M275.94,76.42s-9.89-50.82-28.32-50.82"/><path class="d" d="M219.83,173.34s-81.61-4.43-190.42-114.5C29.42,58.83,0,141.71,208.45,428.98h11.39V173.34Z"/><polyline class="c" points="59.64 184.37 157.77 153.88 187.52 165.88 155.31 256.21 102.71 268.01"/><line class="c" x1="219.83" y1="260.64" x2="155.31" y2="256.21"/><path class="c" d="M166.76,224.1s-53.2-32.48-99.38-22.96"/><line class="c" x1="219.83" y1="311.56" x2="142.5" y2="333.06"/><line class="c" x1="219.83" y1="343.2" x2="155.31" y2="352.62"/><line class="c" x1="219.83" y1="378.31" x2="181.17" y2="387.79"/><line class="c" x1="219.83" y1="402.35" x2="195.3" y2="410.7"/></svg>