<svg xmlns="http://www.w3.org/2000/svg" xmlns:xlink="http://www.w3.org/1999/xlink" id="a" viewBox="0 0 971.16 780.96"><defs><style>.d{fill:none;}.d,.e,.f{stroke:#161818;stroke-miterlimit:10;stroke-width:5px;}.e{fill:url(#c);}.g{fill:#161818;}.f{fill:url(#b);}</style><linearGradient id="b" x1="209.5" y1="99.47" x2="209.5" y2="725.27" gradientUnits="userSpaceOnUse"><stop offset=".6" stop-color="#fce493"/><stop offset=".61" stop-color="#e1d89c"/><stop offset=".63" stop-color="#bcc8a8"/><stop offset=".66" stop-color="#9cbab3"/><stop offset=".68" stop-color="#81aebc"/><stop offset=".71" stop-color="#6ba5c4"/><stop offset=".74" stop-color="#5a9dca"/><stop offset=".78" stop-color="#4e98ce"/><stop offset=".84" stop-color="#4795d0"/><stop offset="1" stop-color="#4695d1"/></linearGradient><linearGradient id="c" x1="657.81" y1="141.47" x2="779.97" y2="716.19" gradientUnits="userSpaceOnUse"><stop offset=".43" stop-color="#fce493"/><stop offset=".45" stop-color="#e1d89c"/><stop offset=".48" stop-color="#bcc8a8"/><stop offset=".51" stop-color="#9cbab3"/><stop offset=".54" stop-color="#81aebc"/><stop offset=".58" stop-color="#6ba5c4"/><stop offset=".63" stop-color="#5a9dca"/><stop offset=".69" stop-color="#4e98ce"/><stop offset=".77" stop-color="#4795d0"/><stop offset="1" stop-color="#4695d1"/></linearGradient></defs><rect class="g" x="455.69" y="245.52" width="54.67" height="529.43"/><circle class="g" cx="483.02" cy="156.75" r="49.2"/><circle class="g" cx="539.23" cy="53.36" r="16.4"/><path class="d" d="M490.21,127.1s16.73-85.92,47.88-85.92"/><path class="g" d="M424.43,245.52S281.83,291.99,30.48,0c0,0-167.92,172.2,284.5,758.31l109.45,16.64V245.52Z"/><circle class="g" cx="417.51" cy="55.47" r="16.4"/><path class="d" d="M466.53,129.21s-16.73-85.92-47.88-85.92"/><path class="f" d="M371.67,293.06s-137.97-7.49-321.94-193.59C49.73,99.47,0,239.58,352.42,725.27h19.25V293.06Z"/><polyline class="d" points="100.83 311.71 266.73 260.16 317.04 280.45 262.57 433.17 173.64 453.12"/><line class="d" x1="371.67" y1="440.66" x2="262.57" y2="433.17"/><path class="d" d="M281.93,378.88s-89.94-54.91-168.02-38.82"/><line class="d" x1="371.67" y1="526.75" x2="240.92" y2="563.1"/><line class="d" x1="371.67" y1="580.23" x2="262.57" y2="596.17"/><line class="d" x1="371.67" y1="639.59" x2="306.29" y2="655.64"/><line class="d" x1="371.67" y1="680.24" x2="330.19" y2="694.35"/></svg>